<svg width="26" height="20" viewBox="0 0 26 20" fill="none" xmlns="http://www.w3.org/2000/svg">
<path d="M25.74 0H0.26C0.117 0 0 0.102273 0 0.227273V2.04545C0 2.17045 0.117 2.27273 0.26 2.27273H25.74C25.883 2.27273 26 2.17045 26 2.04545V0.227273C26 0.102273 25.883 0 25.74 0ZM25.74 17.7273H0.26C0.117 17.7273 0 17.8295 0 17.9545V19.7727C0 19.8977 0.117 20 0.26 20H25.74C25.883 20 26 19.8977 26 19.7727V17.9545C26 17.8295 25.883 17.7273 25.74 17.7273ZM25.74 8.86364H0.26C0.117 8.86364 0 8.96591 0 9.09091V10.9091C0 11.0341 0.117 11.1364 0.26 11.1364H25.74C25.883 11.1364 26 11.0341 26 10.9091V9.09091C26 8.96591 25.883 8.86364 25.74 8.86364Z" fill="white"/>
</svg>
