<svg width="20" height="20" viewBox="0 0 20 20" fill="none" xmlns="http://www.w3.org/2000/svg">
<path d="M10 6C8.94129 6.00699 7.92793 6.43066 7.1793 7.1793C6.43066 7.92793 6.00699 8.94129 6 10C6 12.1893 7.81067 14 10 14C12.188 14 14 12.1893 14 10C14 7.812 12.188 6 10 6Z" fill="#AFB1B4"/>
<path d="M10 3C2.408 3 0.126318 9.617 0.105431 9.684L0 10L0.104436 10.316C0.126318 10.383 2.408 17 10 17C17.592 17 19.8737 10.383 19.8946 10.316L20 10L19.8956 9.684C19.8737 9.617 17.592 3 10 3ZM10 15C4.67774 15 2.61587 11.154 2.11657 10C2.61786 8.842 4.68072 5 10 5C15.3223 5 17.3841 8.846 17.8834 10C17.3821 11.158 15.3193 15 10 15Z" fill="#AFB1B4"/>
</svg>
