<svg width="20" height="20" viewBox="0 0 20 20" fill="none" xmlns="http://www.w3.org/2000/svg">
<path fill-rule="evenodd" clip-rule="evenodd" d="M8.43712 16.9014C8.93115 16.9655 9.45173 17 10 17C17.592 17 19.8737 10.383 19.8946 10.316L20 10L19.8956 9.684C19.8796 9.63517 18.6633 6.10721 15.0658 4.19731L14.1468 5.95857C16.4768 7.17612 17.5431 9.21341 17.8834 10C17.3821 11.158 15.3193 15 10 15C9.80809 15 9.62042 14.995 9.4369 14.9853L8.43712 16.9014ZM10.1348 5.00083C10.0901 5.00028 10.0452 5 10 5C4.68072 5 2.61786 8.842 2.11657 10C2.44 10.7475 3.41909 12.6246 5.51531 13.8542L4.59665 15.6149C1.26017 13.6709 0.119874 10.3633 0.104436 10.316L0 10L0.105431 9.684C0.126318 9.617 2.408 3 10 3C10.3982 3 10.7818 3.01821 11.1513 3.05272L10.1348 5.00083Z" fill="#AFB1B4"/>
<line x1="13.4118" y1="3.35294" x2="6.35294" y2="16.5882" stroke="#AFB1B4" stroke-width="2" stroke-linecap="round"/>
</svg>
